<svg width="17" height="14" viewBox="0 0 17 14" fill="none" xmlns="http://www.w3.org/2000/svg">
<path d="M5.26118 0.75V3.25C5.26118 3.45833 5.18826 3.63542 5.04243 3.78125C4.89659 3.92708 4.71951 4 4.51118 4H1.35493C1.14659 4 0.96951 3.92708 0.823677 3.78125C0.677844 3.63542 0.604927 3.45833 0.604927 3.25V0.75C0.604927 0.541667 0.677844 0.364583 0.823677 0.21875C0.96951 0.0729167 1.14659 0 1.35493 0H4.51118C4.71951 0 4.89659 0.0729167 5.04243 0.21875C5.18826 0.364583 5.26118 0.541667 5.26118 0.75ZM10.9487 8.25C10.9487 8.39583 10.907 8.53125 10.8237 8.65625C10.7612 8.76042 10.6674 8.84375 10.5424 8.90625C10.4383 8.96875 10.3237 9 10.1987 9H7.01118C6.80284 9 6.62576 8.92708 6.47993 8.78125C6.33409 8.63542 6.26118 8.45833 6.26118 8.25V5.75C6.26118 5.54167 6.33409 5.36458 6.47993 5.21875C6.62576 5.07292 6.80284 5 7.01118 5H10.1987C10.407 5 10.5841 5.07292 10.7299 5.21875C10.8758 5.36458 10.9487 5.54167 10.9487 5.75V8.25ZM11.9487 0.75C11.9487 0.541667 12.0216 0.364583 12.1674 0.21875C12.3133 0.0729167 12.4903 0 12.6987 0H15.8549C16.0633 0 16.2403 0.0729167 16.3862 0.21875C16.532 0.364583 16.6049 0.541667 16.6049 0.75V3.25C16.6049 3.45833 16.532 3.63542 16.3862 3.78125C16.2403 3.92708 16.0633 4 15.8549 4H12.6987C12.4903 4 12.3133 3.92708 12.1674 3.78125C12.0216 3.63542 11.9487 3.45833 11.9487 3.25V0.75ZM10.9487 3.25C10.9487 3.35417 10.9278 3.45833 10.8862 3.5625C10.8445 3.64583 10.782 3.71875 10.6987 3.78125C10.6362 3.84375 10.5633 3.89583 10.4799 3.9375C10.3966 3.97917 10.3028 4 10.1987 4H7.01118C6.80284 4 6.62576 3.92708 6.47993 3.78125C6.33409 3.63542 6.26118 3.45833 6.26118 3.25V0.75C6.26118 0.541667 6.33409 0.364583 6.47993 0.21875C6.62576 0.0729167 6.80284 0 7.01118 0H10.1987C10.407 0 10.5841 0.0729167 10.7299 0.21875C10.8758 0.364583 10.9487 0.541667 10.9487 0.75V3.25ZM4.51118 5C4.71951 5 4.89659 5.07292 5.04243 5.21875C5.18826 5.36458 5.26118 5.54167 5.26118 5.75V8.25C5.26118 8.45833 5.18826 8.63542 5.04243 8.78125C4.89659 8.92708 4.71951 9 4.51118 9H1.35493C1.14659 9 0.96951 8.92708 0.823677 8.78125C0.677844 8.63542 0.604927 8.45833 0.604927 8.25V5.75C0.604927 5.54167 0.677844 5.36458 0.823677 5.21875C0.96951 5.07292 1.14659 5 1.35493 5H4.51118ZM0.604927 10.75C0.604927 10.5417 0.677844 10.3646 0.823677 10.2188C0.96951 10.0729 1.14659 10 1.35493 10H4.51118C4.71951 10 4.89659 10.0729 5.04243 10.2188C5.18826 10.3646 5.26118 10.5417 5.26118 10.75V13.25C5.26118 13.4583 5.18826 13.6354 5.04243 13.7812C4.89659 13.9271 4.71951 14 4.51118 14H1.35493C1.14659 14 0.96951 13.9271 0.823677 13.7812C0.677844 13.6354 0.604927 13.4583 0.604927 13.25V10.75ZM12.6987 9C12.4903 9 12.3133 8.92708 12.1674 8.78125C12.0216 8.63542 11.9487 8.45833 11.9487 8.25V5.75C11.9487 5.54167 12.0216 5.36458 12.1674 5.21875C12.3133 5.07292 12.4903 5 12.6987 5H15.8549C16.0633 5 16.2403 5.07292 16.3862 5.21875C16.532 5.36458 16.6049 5.54167 16.6049 5.75V8.25C16.6049 8.45833 16.532 8.63542 16.3862 8.78125C16.2403 8.92708 16.0633 9 15.8549 9H12.6987ZM12.6987 14C12.4903 14 12.3133 13.9271 12.1674 13.7812C12.0216 13.6354 11.9487 13.4583 11.9487 13.25V10.75C11.9487 10.5417 12.0216 10.3646 12.1674 10.2188C12.3133 10.0729 12.4903 10 12.6987 10H15.8549C16.0633 10 16.2403 10.0729 16.3862 10.2188C16.532 10.3646 16.6049 10.5417 16.6049 10.75V13.25C16.6049 13.4583 16.532 13.6354 16.3862 13.7812C16.2403 13.9271 16.0633 14 15.8549 14H12.6987ZM6.26118 10.75C6.26118 10.5417 6.33409 10.3646 6.47993 10.2188C6.62576 10.0729 6.80284 10 7.01118 10H10.1987C10.407 10 10.5841 10.0729 10.7299 10.2188C10.8758 10.3646 10.9487 10.5417 10.9487 10.75V13.25C10.9487 13.4583 10.8758 13.6354 10.7299 13.7812C10.5841 13.9271 10.407 14 10.1987 14H7.01118C6.80284 14 6.62576 13.9271 6.47993 13.7812C6.33409 13.6354 6.26118 13.4583 6.26118 13.25V10.75Z" fill="#00264C"/>
</svg>
