<svg width="17" height="14" viewBox="0 0 17 14" fill="none" xmlns="http://www.w3.org/2000/svg">
<path d="M4.93867 5.75C4.93867 5.34375 4.59492 5 4.18867 5H1.03242C0.594917 5 0.282417 5.34375 0.282417 5.75V8.25C0.282417 8.6875 0.594917 9 1.03242 9H4.18867C4.59492 9 4.93867 8.6875 4.93867 8.25V5.75ZM0.282417 10.75V13.25C0.282417 13.6875 0.594917 14 1.03242 14H4.18867C4.59492 14 4.93867 13.6875 4.93867 13.25V10.75C4.93867 10.3438 4.59492 10 4.18867 10H1.03242C0.594917 10 0.282417 10.3438 0.282417 10.75ZM4.18867 0H1.03242C0.594917 0 0.282417 0.34375 0.282417 0.75V3.25C0.282417 3.6875 0.594917 4 1.03242 4H4.18867C4.59492 4 4.93867 3.6875 4.93867 3.25V0.75C4.93867 0.34375 4.59492 0 4.18867 0ZM6.68867 14H15.5324C15.9387 14 16.2824 13.6875 16.2824 13.25V10.75C16.2824 10.3438 15.9387 10 15.5324 10H6.68867C6.28242 10 5.93867 10.3438 5.93867 10.75V13.25C5.93867 13.6875 6.28242 14 6.68867 14ZM5.93867 0.75V3.25C5.93867 3.6875 6.28242 4 6.68867 4H15.5324C15.9387 4 16.2824 3.6875 16.2824 3.25V0.75C16.2824 0.34375 15.9387 0 15.5324 0H6.68867C6.28242 0 5.93867 0.34375 5.93867 0.75ZM6.68867 9H15.5324C15.9387 9 16.2824 8.6875 16.2824 8.25V5.75C16.2824 5.34375 15.9387 5 15.5324 5H6.68867C6.28242 5 5.93867 5.34375 5.93867 5.75V8.25C5.93867 8.6875 6.28242 9 6.68867 9Z" fill="#00264C"/>
</svg>
